<?xml version="1.0" encoding="UTF-8"?>
<svg version="1.1" xmlns="http://www.w3.org/2000/svg" width="128" height="128">
<path d="M0 0 C42.24 0 84.48 0 128 0 C128 42.24 128 84.48 128 128 C85.76 128 43.52 128 0 128 C0 85.76 0 43.52 0 0 Z " fill="#1A3D70" transform="translate(0,0)"/>
<path d="M0 0 C42.24 0 84.48 0 128 0 C128 42.24 128 84.48 128 128 C85.76 128 43.52 128 0 128 C0 85.76 0 43.52 0 0 Z M21 29 C13.13714054 39.79278246 9.41177175 50.97774931 9.5 64.3125 C9.50572021 65.3221582 9.51144043 66.33181641 9.51733398 67.37207031 C9.71243473 75.5465944 10.99887261 81.76953628 15 89 C15.76183594 90.43859375 15.76183594 90.43859375 16.5390625 91.90625 C24.2554261 105.21789147 37.23422788 114.18382388 52.01953125 118.1953125 C66.34454608 121.43499651 79.75292663 118.29715553 92.375 111.1875 C105.74973789 102.4484507 113.27131621 91.22167219 118 76 C121.05175148 61.18831446 118.30908178 47.61162921 110.75 34.62890625 C101.82003448 21.21402501 89.1172115 13.28977988 73.5546875 9.38671875 C53.44043828 6.34190121 34.44864397 13.86264582 21 29 Z " fill="#1E4172" transform="translate(0,0)"/>
<path d="M0 0 C10.56 0 21.12 0 32 0 C32 0.66 32 1.32 32 2 C30.88625 2.12375 29.7725 2.2475 28.625 2.375 C24.96896323 2.6465813 24.96896323 2.6465813 23 5 C22.69322231 7.48640025 22.69322231 7.48640025 22.74121094 10.41186523 C22.73490662 11.54321396 22.72860229 12.67456268 22.72210693 13.8401947 C22.7261554 15.06726639 22.73020386 16.29433807 22.734375 17.55859375 C22.73246155 18.81382339 22.7305481 20.06905304 22.72857666 21.36231995 C22.72721341 24.02138962 22.72992036 26.68009371 22.73925781 29.33911133 C22.75064089 32.74671617 22.7441001 36.15400557 22.73211288 39.56159878 C22.72314409 42.81060839 22.72942603 46.05958002 22.734375 49.30859375 C22.73032654 50.5336412 22.72627808 51.75868866 22.72210693 53.02085876 C22.72841125 54.15535965 22.73471558 55.28986053 22.74121094 56.45874023 C22.74280212 57.45864487 22.74439331 58.4585495 22.74603271 59.48875427 C22.82711536 62.24785208 22.82711536 62.24785208 25 65 C28.56769552 65.73606499 28.56769552 65.73606499 32 66 C32 66.66 32 67.32 32 68 C21.44 68 10.88 68 0 68 C0 67.34 0 66.68 0 66 C0.56589844 65.87882812 1.13179687 65.75765625 1.71484375 65.6328125 C2.44832031 65.46523437 3.18179688 65.29765625 3.9375 65.125 C4.66839844 64.96257812 5.39929687 64.80015625 6.15234375 64.6328125 C8.20700294 64.17038477 8.20700294 64.17038477 9 62 C9.10613519 60.19307252 9.14880034 58.38226548 9.16113281 56.57226562 C9.17554413 54.870401 9.17554413 54.870401 9.19024658 53.13415527 C9.19449646 51.90394653 9.19874634 50.67373779 9.203125 49.40625 C9.21167511 47.51984802 9.21167511 47.51984802 9.22039795 45.59533691 C9.22985702 42.93217342 9.23674956 40.2691229 9.24023438 37.60595703 C9.24572834 34.18922085 9.26977667 30.77288135 9.29820633 27.35626984 C9.3212737 24.10212634 9.32327792 20.84796385 9.328125 17.59375 C9.3466452 15.74843689 9.3466452 15.74843689 9.36553955 13.86584473 C9.36253845 12.73126831 9.35953735 11.59669189 9.35644531 10.42773438 C9.36009094 9.42560913 9.36373657 8.42348389 9.36749268 7.39099121 C9.1855838 6.20745056 9.1855838 6.20745056 9 5 C5.81237635 2.87491756 3.73487777 2.4979837 0 2 C0 1.34 0 0.68 0 0 Z " fill="#F2F4F5" transform="translate(48,30)"/>
<path d="M0 0 C1.7264979 3.4529958 2.72881704 6.37638782 3.75 10.0625 C8.78119708 26.45505484 18.86065261 38.94378524 34 47 C40.69783891 50.55066159 47.62405516 52.35258085 55 54 C55 54.33 55 54.66 55 55 C36.85 55 18.7 55 0 55 C0 36.85 0 18.7 0 0 Z " fill="#FAFBFA" transform="translate(0,73)"/>
<path d="M0 0 C18.81 0 37.62 0 57 0 C57 18.15 57 36.3 57 55 C55.2735021 51.5470042 54.27118296 48.62361218 53.25 44.9375 C48.56980427 29.68857138 39.44130774 17.48823464 25.63671875 9.39453125 C17.30626309 4.98864581 9.40317628 1.97274237 0 1 C0 0.67 0 0.34 0 0 Z " fill="#FAFBFA" transform="translate(71,0)"/>
<path d="M0 0 C0.33 0 0.66 0 1 0 C1 17.82 1 35.64 1 54 C-17.15 54 -35.3 54 -54 54 C-54 53.67 -54 53.34 -54 53 C-53.319375 52.87625 -52.63875 52.7525 -51.9375 52.625 C-34.74481187 48.96698125 -19.79439656 40.18048317 -10 25.375 C-5.233025 17.20634866 -2.26371179 9.17489248 0 0 Z " fill="#FAFBFA" transform="translate(127,74)"/>
<path d="M0 0 C18.15 0 36.3 0 55 0 C55 0.33 55 0.66 55 1 C54.319375 1.12375 53.63875 1.2475 52.9375 1.375 C35.81768711 5.01751338 20.91397261 13.76599359 11.0625 28.4375 C6.36242497 36.46201835 2.92418099 44.90387166 1 54 C0.67 54 0.34 54 0 54 C0 36.18 0 18.36 0 0 Z " fill="#FBFBFA" transform="translate(0,0)"/>
<path d="M0 0 C0.79792969 0.59167969 1.59585938 1.18335938 2.41796875 1.79296875 C3.12308594 2.29183594 3.82820313 2.79070313 4.5546875 3.3046875 C14.93650025 11.40209352 20.98331872 24.25725612 24.16796875 36.73046875 C25.5828688 54.06299431 22.51304823 68.64588444 12.2421875 82.7890625 C3.89965493 92.52448683 -5.55775564 97.71875354 -17.58203125 101.79296875 C-19.01289063 102.34404297 -19.01289063 102.34404297 -20.47265625 102.90625 C-33.9428223 106.74761645 -48.9655981 103.12496848 -60.89453125 96.54296875 C-76.11559043 87.00956599 -84.80167405 74.30130232 -88.89453125 56.79296875 C-91.58927801 40.572163 -87.89000176 26.26553638 -78.58203125 12.79296875 C-70.17461324 1.04147661 -57.1442601 -6.36034421 -43.265625 -9.77734375 C-27.52176175 -12.29819522 -13.18466069 -9.13383436 0 0 Z M-75.58203125 11.79296875 C-83.44489071 22.58575121 -87.1702595 33.77071806 -87.08203125 47.10546875 C-87.07631104 48.11512695 -87.07059082 49.12478516 -87.06469727 50.16503906 C-86.86959652 58.33956315 -85.58315864 64.56250503 -81.58203125 71.79296875 C-80.82019531 73.2315625 -80.82019531 73.2315625 -80.04296875 74.69921875 C-72.32660515 88.01086022 -59.34780337 96.97679263 -44.5625 100.98828125 C-30.23748517 104.22796526 -16.82910462 101.09012428 -4.20703125 93.98046875 C9.16770664 85.24141945 16.68928496 74.01464094 21.41796875 58.79296875 C24.46972023 43.98128321 21.72705053 30.40459796 14.16796875 17.421875 C5.23800323 4.00699376 -7.46481975 -3.91725137 -23.02734375 -7.8203125 C-43.14159297 -10.86513004 -62.13338728 -3.34438543 -75.58203125 11.79296875 Z " fill="#DDE2E4" transform="translate(96.58203125,17.20703125)"/>
<path d="M0 0 C1.18239258 0.00676758 1.18239258 0.00676758 2.38867188 0.01367188 C4.32164761 0.02538688 6.25458393 0.04332002 8.1875 0.0625 C8.1875 0.3925 8.1875 0.7225 8.1875 1.0625 C7.3625 1.07667969 6.5375 1.09085938 5.6875 1.10546875 C-11.48868704 1.81475326 -27.78088854 7.412925 -40.453125 19.37890625 C-52.05579939 32.57598788 -54.27716863 47.11649312 -54.8125 64.0625 C-55.1425 63.4025 -55.4725 62.7425 -55.8125 62.0625 C-56.4725 62.0625 -57.1325 62.0625 -57.8125 62.0625 C-58.81751319 45.25644614 -53.79573008 31.42731688 -43.25 18.375 C-31.92766321 6.30661776 -16.39013444 -0.17860163 0 0 Z " fill="#DFE3E5" transform="translate(64.8125,6.9375)"/>
<path d="M0 0 C2.63150345 2.63150345 2.85029566 4.83473656 3.75 8.4375 C7.74112839 22.7879543 15.18584564 33.72272093 28.0546875 41.4296875 C34.40589988 44.81587766 40.87371958 47.78205389 48 49 C48 49.66 48 50.32 48 51 C34.14102616 50.20044382 22.22958892 42.68272854 12.75 32.875 C5.20037563 23.91176283 -0.59353253 11.87065066 0 0 Z " fill="#E1E5E7" transform="translate(8,69)"/>
<path d="M0 0 C0 0.33 0 0.66 0 1 C-1.27230469 1.03867188 -1.27230469 1.03867188 -2.5703125 1.078125 C-10.663123 1.46942573 -17.41459729 2.70272009 -25.13671875 5.16015625 C-28 6 -28 6 -31 6 C-31 5.34 -31 4.68 -31 4 C-20.33633065 0.21448188 -11.18687244 -0.48756345 0 0 Z " fill="#C7CFD5" transform="translate(73,7)"/>
<path d="M0 0 C0.33 0 0.66 0 1 0 C1 6.27 1 12.54 1 19 C0.67 18.34 0.34 17.68 0 17 C-0.66 17 -1.32 17 -2 17 C-2.05418326 14.91695462 -2.09287551 12.83350232 -2.125 10.75 C-2.14820313 9.58984375 -2.17140625 8.4296875 -2.1953125 7.234375 C-2.0103949 4.17213954 -1.60823023 2.55797249 0 0 Z " fill="#B8C2CD" transform="translate(9,52)"/>
<path d="M0 0 C0.99 0.33 1.98 0.66 3 1 C2.65066406 1.73605469 2.30132812 2.47210938 1.94140625 3.23046875 C1.48636719 4.20628906 1.03132812 5.18210937 0.5625 6.1875 C0.11003906 7.15042969 -0.34242187 8.11335938 -0.80859375 9.10546875 C-2.08754128 11.91418196 -2.08754128 11.91418196 -2.47265625 14.73828125 C-3 17 -3 17 -6 19 C-5.52877252 12.0886636 -2.79363994 6.27795839 0 0 Z " fill="#D8DDE1" transform="translate(14,36)"/>
<path d="M0 0 C2 2 2 2 2.046875 3.98828125 C1.49925341 8.27558189 0.90566194 12.06163199 -1 16 C-2.79570284 13.33874255 -3.03345719 12.21888938 -2.5390625 8.984375 C-2.23742187 7.91703125 -1.93578125 6.8496875 -1.625 5.75 C-1.32851562 4.67234375 -1.03203125 3.5946875 -0.7265625 2.484375 C-0.48679687 1.66453125 -0.24703125 0.8446875 0 0 Z " fill="#D3D9DF" transform="translate(118,70)"/>
<path d="M0 0 C2.91722548 -0.08103404 5.83219516 -0.14051081 8.75 -0.1875 C9.575 -0.21263672 10.4 -0.23777344 11.25 -0.26367188 C17.42297754 -0.33834499 17.42297754 -0.33834499 20.578125 1.51171875 C21.28195313 2.24841797 21.28195313 2.24841797 22 3 C21.41734375 2.93941406 20.8346875 2.87882813 20.234375 2.81640625 C13.49590043 2.12772567 6.75149484 1.54522381 0 1 C0 0.67 0 0.34 0 0 Z " fill="#EEF1F0" transform="translate(59,8)"/>
<path d="M0 0 C1.4589426 0.47730838 2.91713496 0.95691042 4.375 1.4375 C5.18710938 1.70433594 5.99921875 1.97117187 6.8359375 2.24609375 C9 3 9 3 11 4 C10.67 4.99 10.34 5.98 10 7 C6.04 5.35 2.08 3.7 -2 2 C-1.34 1.34 -0.68 0.68 0 0 Z " fill="#D9DFE2" transform="translate(81,10)"/>
<path d="M0 0 C0.66 0.33 1.32 0.66 2 1 C-0.97 4.96 -0.97 4.96 -4 9 C-4.66 8.67 -5.32 8.34 -6 8 C-4.02 5.36 -2.04 2.72 0 0 Z " fill="#EBEFEE" transform="translate(21,27)"/>
<path d="M0 0 C2.50037734 2.17424117 3.43628586 3.73045798 4 7 C3.01 7.495 3.01 7.495 2 8 C1.01 5.69 0.02 3.38 -1 1 C-0.67 0.67 -0.34 0.34 0 0 Z " fill="#D9DFE1" transform="translate(112,35)"/>
</svg>
